<svg xmlns="http://www.w3.org/2000/svg" xmlns:xlink="http://www.w3.org/1999/xlink" width="1920" zoomAndPan="magnify" viewBox="0 0 1440 719.999996" height="960" preserveAspectRatio="xMidYMid meet" version="1.0"><defs><g/><clipPath id="cd0ce03c17"><path d="M 204 65 L 1235.871094 65 L 1235.871094 693 L 204 693 Z M 204 65 " clip-rule="nonzero"/></clipPath></defs><path fill="#cbfbf1" d="M 558.804688 131.28125 C 497.910156 100.746094 469.589844 152.730469 465.527344 189.488281 C 462.6875 215.195312 465.136719 248.242188 471.480469 284.992188 L 487.105469 284.992188 C 473.917969 187.753906 491.160156 121.601562 558.804688 131.28125 Z M 525.585938 473.40625 C 545.011719 523.613281 567.199219 570.472656 589.289062 606.421875 C 569.4375 562.878906 551.21875 517.746094 535.675781 473.40625 Z M 525.585938 473.40625 " fill-opacity="1" fill-rule="evenodd"/><g clip-path="url(#cd0ce03c17)"><path fill="#00bba7" d="M 204.214844 271.148438 L 418.785156 271.148438 C 405.496094 183.039062 412.957031 108.726562 459.722656 82.441406 C 606.425781 -0.0234375 681.292969 252.84375 844.042969 184.355469 C 713.1875 287.558594 555.085938 23.5 466.296875 124.1875 C 437.269531 157.105469 436.316406 217.3125 449.023438 284.992188 L 204.214844 284.992188 Z M 1235.796875 271.148438 L 1235.796875 284.992188 L 988 284.992188 C 993.449219 252.183594 995.953125 219.894531 994.058594 189.574219 C 990.382812 130.746094 944.210938 95.863281 884.765625 130.703125 C 842.695312 155.355469 799.859375 187.300781 704.53125 154.144531 C 842.515625 185.796875 881.953125 48.5625 980.222656 92.5 C 1027.265625 113.535156 1034.589844 184.769531 1021.019531 271.148438 Z M 1235.796875 473.40625 L 1235.796875 487.25 L 958.960938 487.25 C 930.820312 558.722656 898.765625 622.011719 872.722656 658.640625 C 844.878906 697.789062 795.949219 710.589844 786.445312 655.921875 C 773.792969 583.21875 777.96875 532.03125 690.46875 549.574219 C 767.640625 510.257812 798 558.578125 803.890625 639.160156 C 807.277344 685.367188 848.085938 672.078125 875.988281 606.671875 C 887.984375 578.582031 910.570312 530.507812 932.847656 473.40625 Z M 204.214844 487.25 L 204.214844 473.40625 L 506.808594 473.40625 C 530.324219 532.875 554.3125 583.496094 567.699219 610.027344 C 594.484375 663.128906 624.183594 674.96875 627.789062 628.808594 C 635.488281 530.363281 698.878906 495.371094 782.285156 529.386719 C 698.984375 509.664062 659.882812 551.507812 652.324219 616.921875 C 644.265625 686.710938 607.289062 719.945312 562.617188 655.292969 C 536.980469 618.191406 506.257812 556.699219 479.328125 487.25 Z M 204.214844 487.25 " fill-opacity="1" fill-rule="evenodd"/></g><g fill="#ffffff" fill-opacity="1"><g transform="translate(220.858354, 420.408838)"><g><path d="M 32.515625 -108.1875 L 32.515625 0 L 7.875 0 L 7.875 -108.1875 Z M 32.515625 -108.1875 "/></g></g></g><g fill="#ffffff" fill-opacity="1"><g transform="translate(261.250846, 420.408838)"><g><path d="M 12.453125 -8.328125 C 6.160156 -15.191406 3.015625 -23.601562 3.015625 -33.5625 C 3.015625 -43.53125 6.160156 -51.96875 12.453125 -58.875 C 18.753906 -65.789062 26.753906 -69.25 36.453125 -69.25 C 45.367188 -69.25 52.710938 -66.445312 58.484375 -60.84375 L 58.484375 -112.78125 L 81.703125 -112.78125 L 81.703125 0 L 58.75 0 L 58.75 -7.609375 L 58.484375 -7.609375 C 52.710938 -1.222656 45.367188 1.96875 36.453125 1.96875 C 26.753906 1.96875 18.753906 -1.460938 12.453125 -8.328125 Z M 32.1875 -44.96875 C 29.175781 -42 27.671875 -38.195312 27.671875 -33.5625 C 27.671875 -28.9375 29.113281 -25.15625 32 -22.21875 C 34.882812 -19.289062 38.6875 -17.828125 43.40625 -17.828125 C 47.957031 -17.828125 51.695312 -19.3125 54.625 -22.28125 C 57.550781 -25.257812 59.015625 -29.023438 59.015625 -33.578125 C 59.015625 -38.203125 57.503906 -42 54.484375 -44.96875 C 51.472656 -47.945312 47.78125 -49.4375 43.40625 -49.4375 C 38.945312 -49.4375 35.207031 -47.945312 32.1875 -44.96875 Z M 32.1875 -44.96875 "/></g></g></g><g fill="#ffffff" fill-opacity="1"><g transform="translate(350.822512, 420.408838)"><g><path d="M 75.9375 -30.421875 L 27.140625 -30.421875 C 27.140625 -25.703125 28.671875 -22.207031 31.734375 -19.9375 C 34.796875 -17.664062 38.117188 -16.53125 41.703125 -16.53125 C 45.460938 -16.53125 48.4375 -17.03125 50.625 -18.03125 C 52.8125 -19.039062 55.300781 -21.03125 58.09375 -24 L 74.875 -15.609375 C 67.882812 -3.890625 56.257812 1.96875 40 1.96875 C 29.851562 1.96875 21.148438 -1.503906 13.890625 -8.453125 C 6.640625 -15.410156 3.015625 -23.785156 3.015625 -33.578125 C 3.015625 -43.367188 6.640625 -51.757812 13.890625 -58.75 C 21.148438 -65.75 29.851562 -69.25 40 -69.25 C 50.664062 -69.25 59.34375 -66.164062 66.03125 -60 C 72.71875 -53.832031 76.0625 -45.023438 76.0625 -33.578125 C 76.0625 -32.003906 76.019531 -30.953125 75.9375 -30.421875 Z M 27.796875 -43.28125 L 53.375 -43.28125 C 52.851562 -46.769531 51.476562 -49.453125 49.25 -51.328125 C 47.019531 -53.210938 44.15625 -54.15625 40.65625 -54.15625 C 36.8125 -54.15625 33.75 -53.148438 31.46875 -51.140625 C 29.195312 -49.128906 27.972656 -46.507812 27.796875 -43.28125 Z M 27.796875 -43.28125 "/></g></g></g><g fill="#ffffff" fill-opacity="1"><g transform="translate(429.640327, 420.408838)"><g><path d="M 7.875 0 L 7.875 -67.28125 L 31.078125 -67.28125 L 31.078125 -60.1875 L 31.34375 -60.1875 C 37.375 -66.226562 43.800781 -69.25 50.625 -69.25 C 53.945312 -69.25 57.242188 -68.8125 60.515625 -67.9375 C 63.796875 -67.0625 66.941406 -65.703125 69.953125 -63.859375 C 72.972656 -62.023438 75.421875 -59.425781 77.296875 -56.0625 C 79.179688 -52.695312 80.125 -48.785156 80.125 -44.328125 L 80.125 0 L 56.921875 0 L 56.921875 -38.03125 C 56.921875 -41.53125 55.804688 -44.585938 53.578125 -47.203125 C 51.347656 -49.828125 48.4375 -51.140625 44.84375 -51.140625 C 41.351562 -51.140625 38.1875 -49.785156 35.34375 -47.078125 C 32.5 -44.367188 31.078125 -41.351562 31.078125 -38.03125 L 31.078125 0 Z M 7.875 0 "/></g></g></g><g fill="#ffffff" fill-opacity="1"><g transform="translate(515.53995, 420.408838)"><g><path d="M 11.796875 -67.28125 L 11.796875 -92.328125 L 35.015625 -92.328125 L 35.015625 -67.28125 L 49.171875 -67.28125 L 49.171875 -49.578125 L 35.015625 -49.578125 L 35.015625 -28.1875 C 35.015625 -21.988281 36.765625 -18.890625 40.265625 -18.890625 C 41.140625 -18.890625 42.054688 -19.0625 43.015625 -19.40625 C 43.972656 -19.757812 44.71875 -20.109375 45.25 -20.453125 L 46.03125 -20.984375 L 51.796875 -2.234375 C 46.816406 0.566406 41.132812 1.96875 34.75 1.96875 C 30.375 1.96875 26.613281 1.203125 23.46875 -0.328125 C 20.320312 -1.859375 17.941406 -3.910156 16.328125 -6.484375 C 14.710938 -9.066406 13.550781 -11.78125 12.84375 -14.625 C 12.144531 -17.46875 11.796875 -20.503906 11.796875 -23.734375 L 11.796875 -49.578125 L 2.09375 -49.578125 L 2.09375 -67.28125 Z M 11.796875 -67.28125 "/></g></g></g><g fill="#ffffff" fill-opacity="1"><g transform="translate(567.341995, 420.408838)"><g><path d="M 10.09375 -104.78125 C 12.800781 -107.488281 16.035156 -108.84375 19.796875 -108.84375 C 23.554688 -108.84375 26.789062 -107.488281 29.5 -104.78125 C 32.21875 -102.070312 33.578125 -98.835938 33.578125 -95.078125 C 33.578125 -91.316406 32.21875 -88.082031 29.5 -85.375 C 26.789062 -82.664062 23.554688 -81.3125 19.796875 -81.3125 C 16.035156 -81.3125 12.800781 -82.664062 10.09375 -85.375 C 7.382812 -88.082031 6.03125 -91.316406 6.03125 -95.078125 C 6.03125 -98.835938 7.382812 -102.070312 10.09375 -104.78125 Z M 7.875 -67.28125 L 7.875 0 L 31.078125 0 L 31.078125 -67.28125 Z M 7.875 -67.28125 "/></g></g></g><g fill="#ffffff" fill-opacity="1"><g transform="translate(606.947661, 420.408838)"><g><path d="M 11.796875 -67.28125 L 11.796875 -92.328125 L 35.015625 -92.328125 L 35.015625 -67.28125 L 49.171875 -67.28125 L 49.171875 -49.578125 L 35.015625 -49.578125 L 35.015625 -28.1875 C 35.015625 -21.988281 36.765625 -18.890625 40.265625 -18.890625 C 41.140625 -18.890625 42.054688 -19.0625 43.015625 -19.40625 C 43.972656 -19.757812 44.71875 -20.109375 45.25 -20.453125 L 46.03125 -20.984375 L 51.796875 -2.234375 C 46.816406 0.566406 41.132812 1.96875 34.75 1.96875 C 30.375 1.96875 26.613281 1.203125 23.46875 -0.328125 C 20.320312 -1.859375 17.941406 -3.910156 16.328125 -6.484375 C 14.710938 -9.066406 13.550781 -11.78125 12.84375 -14.625 C 12.144531 -17.46875 11.796875 -20.503906 11.796875 -23.734375 L 11.796875 -49.578125 L 2.09375 -49.578125 L 2.09375 -67.28125 Z M 11.796875 -67.28125 "/></g></g></g><g fill="#ffffff" fill-opacity="1"><g transform="translate(658.749706, 420.408838)"><g><path d="M 58.875 -67.28125 L 85.640625 -67.28125 L 32.78125 34.09375 L 6.03125 34.09375 L 29.25 -10.484375 L -2.625 -67.28125 L 24.125 -67.28125 L 42.890625 -32.78125 Z M 58.875 -67.28125 "/></g></g></g><g fill="#ffffff" fill-opacity="1"><g transform="translate(741.764137, 420.408838)"><g/></g></g><g fill="#ffffff" fill-opacity="1"><g transform="translate(777.566564, 420.408838)"><g><path d="M 7.875 -108.1875 L 39.21875 -108.1875 C 54.25 -108.1875 67.097656 -103.050781 77.765625 -92.78125 C 88.429688 -82.507812 93.765625 -69.632812 93.765625 -54.15625 C 93.765625 -38.59375 88.453125 -25.675781 77.828125 -15.40625 C 67.203125 -5.132812 54.332031 0 39.21875 0 L 7.875 0 Z M 32.515625 -22.03125 L 36.328125 -22.03125 C 45.328125 -22.03125 52.691406 -25.066406 58.421875 -31.140625 C 64.148438 -37.222656 67.054688 -44.851562 67.140625 -54.03125 C 67.140625 -63.207031 64.273438 -70.851562 58.546875 -76.96875 C 52.828125 -83.09375 45.421875 -86.15625 36.328125 -86.15625 L 32.515625 -86.15625 Z M 32.515625 -22.03125 "/></g></g></g><g fill="#ffffff" fill-opacity="1"><g transform="translate(874.351212, 420.408838)"><g><path d="M 75.9375 -30.421875 L 27.140625 -30.421875 C 27.140625 -25.703125 28.671875 -22.207031 31.734375 -19.9375 C 34.796875 -17.664062 38.117188 -16.53125 41.703125 -16.53125 C 45.460938 -16.53125 48.4375 -17.03125 50.625 -18.03125 C 52.8125 -19.039062 55.300781 -21.03125 58.09375 -24 L 74.875 -15.609375 C 67.882812 -3.890625 56.257812 1.96875 40 1.96875 C 29.851562 1.96875 21.148438 -1.503906 13.890625 -8.453125 C 6.640625 -15.410156 3.015625 -23.785156 3.015625 -33.578125 C 3.015625 -43.367188 6.640625 -51.757812 13.890625 -58.75 C 21.148438 -65.75 29.851562 -69.25 40 -69.25 C 50.664062 -69.25 59.34375 -66.164062 66.03125 -60 C 72.71875 -53.832031 76.0625 -45.023438 76.0625 -33.578125 C 76.0625 -32.003906 76.019531 -30.953125 75.9375 -30.421875 Z M 27.796875 -43.28125 L 53.375 -43.28125 C 52.851562 -46.769531 51.476562 -49.453125 49.25 -51.328125 C 47.019531 -53.210938 44.15625 -54.15625 40.65625 -54.15625 C 36.8125 -54.15625 33.75 -53.148438 31.46875 -51.140625 C 29.195312 -49.128906 27.972656 -46.507812 27.796875 -43.28125 Z M 27.796875 -43.28125 "/></g></g></g><g fill="#ffffff" fill-opacity="1"><g transform="translate(953.169003, 420.408838)"><g><path d="M 7.875 0 L 7.875 -67.28125 L 31.078125 -67.28125 L 31.078125 -60.1875 L 31.34375 -60.1875 C 37.375 -66.226562 43.800781 -69.25 50.625 -69.25 C 53.945312 -69.25 57.242188 -68.8125 60.515625 -67.9375 C 63.796875 -67.0625 66.941406 -65.703125 69.953125 -63.859375 C 72.972656 -62.023438 75.421875 -59.425781 77.296875 -56.0625 C 79.179688 -52.695312 80.125 -48.785156 80.125 -44.328125 L 80.125 0 L 56.921875 0 L 56.921875 -38.03125 C 56.921875 -41.53125 55.804688 -44.585938 53.578125 -47.203125 C 51.347656 -49.828125 48.4375 -51.140625 44.84375 -51.140625 C 41.351562 -51.140625 38.1875 -49.785156 35.34375 -47.078125 C 32.5 -44.367188 31.078125 -41.351562 31.078125 -38.03125 L 31.078125 0 Z M 7.875 0 "/></g></g></g><g fill="#ffffff" fill-opacity="1"><g transform="translate(1039.068581, 420.408838)"><g><path d="M 11.796875 -67.28125 L 11.796875 -92.328125 L 35.015625 -92.328125 L 35.015625 -67.28125 L 49.171875 -67.28125 L 49.171875 -49.578125 L 35.015625 -49.578125 L 35.015625 -28.1875 C 35.015625 -21.988281 36.765625 -18.890625 40.265625 -18.890625 C 41.140625 -18.890625 42.054688 -19.0625 43.015625 -19.40625 C 43.972656 -19.757812 44.71875 -20.109375 45.25 -20.453125 L 46.03125 -20.984375 L 51.796875 -2.234375 C 46.816406 0.566406 41.132812 1.96875 34.75 1.96875 C 30.375 1.96875 26.613281 1.203125 23.46875 -0.328125 C 20.320312 -1.859375 17.941406 -3.910156 16.328125 -6.484375 C 14.710938 -9.066406 13.550781 -11.78125 12.84375 -14.625 C 12.144531 -17.46875 11.796875 -20.503906 11.796875 -23.734375 L 11.796875 -49.578125 L 2.09375 -49.578125 L 2.09375 -67.28125 Z M 11.796875 -67.28125 "/></g></g></g><g fill="#ffffff" fill-opacity="1"><g transform="translate(1090.608374, 420.408838)"><g><path d="M 12.453125 -8.328125 C 6.160156 -15.191406 3.015625 -23.601562 3.015625 -33.5625 C 3.015625 -43.53125 6.160156 -51.96875 12.453125 -58.875 C 18.753906 -65.789062 26.753906 -69.25 36.453125 -69.25 C 45.367188 -69.25 52.710938 -66.445312 58.484375 -60.84375 L 58.484375 -67.28125 L 81.703125 -67.28125 L 81.703125 0 L 58.75 0 L 58.75 -7.609375 L 58.484375 -7.609375 C 52.710938 -1.222656 45.367188 1.96875 36.453125 1.96875 C 26.753906 1.96875 18.753906 -1.460938 12.453125 -8.328125 Z M 32.1875 -44.96875 C 29.175781 -42 27.671875 -38.195312 27.671875 -33.5625 C 27.671875 -28.9375 29.113281 -25.15625 32 -22.21875 C 34.882812 -19.289062 38.6875 -17.828125 43.40625 -17.828125 C 47.957031 -17.828125 51.695312 -19.3125 54.625 -22.28125 C 57.550781 -25.257812 59.015625 -29.023438 59.015625 -33.578125 C 59.015625 -38.203125 57.503906 -42 54.484375 -44.96875 C 51.472656 -47.945312 47.78125 -49.4375 43.40625 -49.4375 C 38.945312 -49.4375 35.207031 -47.945312 32.1875 -44.96875 Z M 32.1875 -44.96875 "/></g></g></g><g fill="#ffffff" fill-opacity="1"><g transform="translate(1180.180086, 420.408838)"><g><path d="M 7.875 0 L 7.875 -112.78125 L 31.078125 -112.78125 L 31.078125 0 Z M 7.875 0 "/></g></g></g></svg>